<svg width="26px" height="23px"  viewBox="0 0 26 23">
<path fill-rule="evenodd"  fill="#ffffff"
d="M2.8137207,3.6287842 C2.8137207,3.6287842 5.1468506,3.6287842 5.1468506,3.6287842 C5.1468506,3.6287842 8.470215,15.666626 8.470215,15.666626 C8.565186,16.020142 8.890747,16.264282 9.256958,16.264282 C9.256958,16.264282 19.471252,16.264282 19.471252,16.264282 C19.796875,16.264282 20.081726,16.074707 20.217285,15.775757 C20.217285,15.775757 23.934021,7.215576 23.934021,7.215576 C24.042603,6.9570312 24.01538,6.6727295 23.86615,6.4403076 C23.716919,6.2105713 23.459229,6.0739746 23.187988,6.0739746 C23.187988,6.0739746 11.902161,6.0739746 11.902161,6.0739746 C11.454468,6.0739746 11.088257,6.4403076 11.088257,6.889038 C11.088257,7.338379 11.454468,7.7054443 11.902161,7.7054443 C11.902161,7.7054443 21.940125,7.7054443 21.940125,7.7054443 C21.940125,7.7054443 18.92871,14.633545 18.92871,14.633545 C18.92871,14.633545 9.867371,14.633545 9.867371,14.633545 C9.867371,14.633545 6.5440063,2.5963135 6.5440063,2.5963135 C6.4491577,2.243042 6.123596,1.9979248 5.7573853,1.9979248 C5.7573853,1.9979248 2.8137207,1.9979248 2.8137207,1.9979248 C2.36615,1.9979248 1.9998169,2.3653564 1.9998169,2.8139648 C1.9998169,3.2617188 2.36615,3.6287842 2.8137207,3.6287842 ZM8.483826,21.998535 C9.50116,21.998535 10.328613,21.169434 10.328613,20.15039 C10.328613,19.131104 9.50116,18.302979 8.483826,18.302979 C7.4664307,18.302979 6.639038,19.131104 6.639038,20.15039 C6.639038,21.169434 7.4664307,21.998535 8.483826,21.998535 ZM20.013855,21.998535 C20.054565,21.998535 20.108826,21.998535 20.149475,21.998535 C20.637878,21.957642 21.08545,21.73999 21.411072,21.35962 C21.736633,20.993652 21.885864,20.51709 21.858643,20.015137 C21.790894,19.008911 20.909119,18.234985 19.891846,18.302979 C18.87445,18.370972 18.114807,19.26709 18.182678,20.27295 C18.250427,21.237793 19.05072,21.998535 20.013855,21.998535 Z"/>
</svg>