<svg xmlns="http://www.w3.org/2000/svg"
 xmlns:xlink="http://www.w3.org/1999/xlink"
 width="22px" height="20px"  viewBox="0 0 22 20">
<path fill-rule="evenodd"  fill="#243f4d"
 d="M7.5264893,18.977768 C6.989624,18.977768 6.4626465,18.76796 6.0649414,18.371208 C5.4681396,17.77739 5.2907715,16.890747 5.6123047,16.110977 C5.934326,15.334145 6.685791,14.830849 7.5272217,14.830849 C7.5272217,14.830849 7.5272217,14.830849 7.5272217,14.830849 C7.5290527,14.830849 7.5303955,14.830849 7.532593,14.830849 C8.083374,14.830849 8.602173,15.044586 8.993652,15.433495 C9.385986,15.826645 9.602051,16.345627 9.602051,16.899574 C9.603882,17.740463 9.102905,18.49311 8.325439,18.81665 C8.066528,18.925156 7.795044,18.977768 7.5264893,18.977768 ZM7.532593,16.014565 C7.5303955,16.014565 7.5290527,16.014565 7.5285645,16.014565 C7.1674805,16.014565 6.845459,16.230263 6.7070312,16.563606 C6.569824,16.896957 6.6453857,17.278671 6.901123,17.532936 C7.1568604,17.786865 7.5375977,17.862038 7.869873,17.72445 C8.203369,17.5849 8.417969,17.261353 8.417114,16.90055 C8.417114,16.663612 8.324463,16.441055 8.156616,16.272095 C7.9906006,16.107376 7.7681885,16.014565 7.532593,16.014565 ZM15.918457,18.977768 C15.38147,18.977768 14.854126,18.76796 14.456787,18.371208 C13.859985,17.776085 13.682617,16.890747 14.004761,16.110977 C14.325806,15.334145 15.076904,14.830849 15.918457,14.830849 C15.918457,14.830849 15.918457,14.830849 15.918457,14.830849 C16.464111,14.7909775 16.998291,15.048836 17.385986,15.434143 C17.77832,15.826645 17.993408,16.345627 17.993408,16.899574 C17.996216,17.739151 17.49585,18.49311 16.718628,18.81665 C16.45935,18.925156 16.1875,18.976463 15.918457,18.977768 ZM15.924316,16.014565 C15.92334,16.014565 15.922607,16.014565 15.922607,16.014565 C15.591675,16.04692 15.237915,16.229607 15.099976,16.562958 C14.961304,16.896957 15.0373535,17.278671 15.292847,17.532936 C15.549316,17.788177 15.93103,17.862038 16.262695,17.72445 C16.595337,17.5849 16.810425,17.261353 16.809326,16.900879 C16.809326,16.663612 16.716797,16.441055 16.549072,16.272095 C16.384277,16.109016 16.156738,16.014565 15.924316,16.014565 ZM4.6452637,16.178299 C4.5612793,16.178299 4.476074,16.160652 4.3951416,16.122414 C4.098633,15.983841 3.970337,15.631538 4.109131,15.335121 C4.6879883,14.09552 5.736328,13.361504 7.1627197,13.184372 C7.1627197,13.184372 6.10791,7.793274 6.10791,7.793274 C6.045288,7.4726715 6.2545166,7.1608963 6.5754395,7.0978165 C6.8964844,7.0317993 7.2070312,7.245865 7.270752,7.565811 C7.270752,7.565811 8.362061,13.143845 8.362061,13.143845 C8.362061,13.143845 17.785034,13.143845 17.785034,13.143845 C17.785034,13.143845 19.592041,6.3726196 19.592041,6.3726196 C19.592041,6.3726196 6.314087,6.3726196 6.314087,6.3726196 C6.3060303,6.3726196 6.2978516,6.3726196 6.289551,6.3726196 C4.161743,6.3726196 2.3214111,4.788887 2.0065918,2.6796417 C1.9576416,2.3551178 2.1809082,2.054123 2.5048828,2.0064087 C2.8198242,1.9511795 3.1291504,2.180603 3.1778564,2.505127 C3.4068604,4.0365677 4.744629,5.1869507 6.293091,5.1869507 C6.298828,5.1869507 6.3050537,5.1869507 6.310791,5.1869507 C6.310791,5.1869507 20.36316,5.1869507 20.36316,5.1869507 C20.547363,5.1869507 20.720947,5.272896 20.832764,5.4189835 C20.945435,5.565071 20.983154,5.755272 20.936035,5.9320755 C20.936035,5.9320755 18.812866,13.8880005 18.812866,13.8880005 C18.74353,14.146507 18.5083,14.32756 18.240112,14.32756 C18.240112,14.32756 7.8847656,14.32756 7.8847656,14.32756 C7.8760986,14.3256 7.868286,14.3256 7.8623047,14.32756 C6.532715,14.328537 5.656616,14.821045 5.182251,15.837433 C5.0820312,16.05149 4.8685303,16.178299 4.6452637,16.178299 Z"/>
</svg>