<svg xmlns="http://www.w3.org/2000/svg"
 xmlns:xlink="http://www.w3.org/1999/xlink"
 width="52px" height="32px"  viewBox="0 0 52 32">
<path fill-rule="evenodd"  fill="#a3bbc8"
 d="M10.816406,6.333618 C10.816406,6.333618 4.6903687,6.333618 4.6903687,6.333618 C4.256775,6.333618 3.9050903,6.685547 3.9050903,7.1192627 C3.9050903,7.553955 4.256775,7.905884 4.6903687,7.905884 C4.6903687,7.905884 10.816406,7.905884 10.816406,7.905884 C11.250244,7.905884 11.601685,7.553955 11.601685,7.1192627 C11.601685,6.685547 11.250244,6.333618 10.816406,6.333618 ZM11.339966,17.339966 C11.339966,17.339966 5.737732,17.339966 5.737732,17.339966 C5.304016,17.339966 4.9524536,17.692017 4.9524536,18.125977 C4.9524536,18.559937 5.304016,18.911621 5.737732,18.911621 C5.737732,18.911621 11.34021,18.911621 11.34021,18.911621 C11.773804,18.911621 12.125488,18.559937 12.125488,18.125977 C12.125488,17.692017 11.773682,17.339966 11.339966,17.339966 ZM9.245605,12.623169 C9.245605,12.623169 2.5960693,12.623169 2.5960693,12.623169 C2.1622314,12.623169 1.8105469,12.974731 1.8105469,13.408813 C1.8105469,13.84314 2.1622314,14.195068 2.5960693,14.195068 C2.5960693,14.195068 9.245605,14.195068 9.245605,14.195068 C9.679321,14.195068 10.031006,13.84314 10.031006,13.408813 C10.031006,12.974731 9.679321,12.623169 9.245605,12.623169 ZM9.245605,23.628906 C9.245605,23.628906 8.601501,23.628906 8.601501,23.628906 C8.167664,23.628906 7.815979,23.981445 7.815979,24.415527 C7.815979,24.849487 8.167664,25.201782 8.601501,25.201782 C8.601501,25.201782 9.245605,25.201782 9.245605,25.201782 C9.679321,25.201782 10.031006,24.849487 10.031006,24.415527 C10.031006,23.981445 9.679321,23.628906 9.245605,23.628906 ZM5.9834595,23.628906 C5.9834595,23.628906 2.5960693,23.628906 2.5960693,23.628906 C2.1622314,23.628906 1.8105469,23.981445 1.8105469,24.415527 C1.8105469,24.849487 2.1622314,25.201782 2.5960693,25.201782 C2.5960693,25.201782 5.9834595,25.201782 5.9834595,25.201782 C6.417053,25.201782 6.768738,24.849487 6.768738,24.415527 C6.768738,23.981445 6.417053,23.628906 5.9834595,23.628906 ZM42.843018,3.769104 C42.843018,3.769104 36.18579,3.769104 36.18579,3.769104 C36.18579,3.769104 36.18579,2.3536987 36.18579,2.3536987 C36.18579,1.9196777 35.83423,1.567688 35.40039,1.567688 C35.40039,1.567688 23.225098,1.567688 23.225098,1.567688 C22.791382,1.567688 22.439697,1.9196777 22.439697,2.3536987 C22.439697,2.788025 22.791382,3.1403198 23.225098,3.1403198 C23.225098,3.1403198 34.61493,3.1403198 34.61493,3.1403198 C34.61493,3.1403198 34.61493,20.360107 34.61493,20.360107 C34.61493,20.794067 34.96649,21.145996 35.40039,21.145996 C35.83423,21.145996 36.18567,20.794067 36.18567,20.360107 C36.18567,20.360107 36.18567,5.341797 36.18567,5.341797 C36.18567,5.341797 42.843018,5.341797 42.843018,5.341797 C46.431763,5.341797 49.351624,8.263794 49.351624,11.855103 C49.351624,11.855103 49.351624,25.154053 49.351624,25.154053 C49.351624,25.154053 47.354614,25.154053 47.354614,25.154053 C46.97699,22.780396 44.91864,20.96106 42.44281,20.96106 C39.967224,20.96106 37.908936,22.780396 37.53125,25.154053 C37.53125,25.154053 36.18567,25.154053 36.18567,25.154053 C36.18567,25.154053 36.18567,24.028809 36.18567,24.028809 C36.18567,23.594849 35.83423,23.243164 35.40039,23.243164 C34.96649,23.243164 34.61493,23.594849 34.61493,24.028809 C34.61493,24.028809 34.61493,25.154053 34.61493,25.154053 C34.61493,25.154053 26.279297,25.154053 26.279297,25.154053 C25.90155,22.780396 23.843079,20.96106 21.367615,20.96106 C18.892029,20.96106 16.83368,22.780396 16.45581,25.154053 C16.45581,25.154053 14.822388,25.154053 14.822388,25.154053 C14.822388,25.154053 14.822388,3.1403198 14.822388,3.1403198 C14.822388,3.1403198 20.083496,3.1403198 20.083496,3.1403198 C20.517212,3.1403198 20.868774,2.788025 20.868774,2.3536987 C20.868774,1.9196777 20.517212,1.567688 20.083496,1.567688 C20.083496,1.567688 14.036865,1.567688 14.036865,1.567688 C13.603149,1.567688 13.251587,1.9196777 13.251587,2.3536987 C13.251587,2.3536987 13.251587,25.94043 13.251587,25.94043 C13.251587,26.374023 13.603149,26.726685 14.036865,26.726685 C14.036865,26.726685 16.45581,26.726685 16.45581,26.726685 C16.83368,29.099731 18.892029,30.919434 21.367615,30.919434 C23.843079,30.919434 25.901672,29.099731 26.279297,26.726685 C26.279297,26.726685 37.53125,26.726685 37.53125,26.726685 C37.908936,29.099731 39.967224,30.919434 42.44281,30.919434 C44.918396,30.919434 46.976746,29.099731 47.354492,26.726685 C47.354492,26.726685 50.1369,26.726685 50.1369,26.726685 C50.57068,26.726685 50.92224,26.374023 50.92224,25.94043 C50.92224,25.94043 50.92224,11.855103 50.92224,11.855103 C50.922424,7.3970947 47.297974,3.769104 42.843018,3.769104 ZM21.367615,29.347412 C19.490906,29.347412 17.96405,27.819214 17.96405,25.94043 C17.96405,24.06189 19.490906,22.534058 21.367615,22.534058 C23.244202,22.534058 24.771118,24.06189 24.771118,25.94043 C24.771118,27.819214 23.244202,29.347412 21.367615,29.347412 ZM42.443176,29.347412 C40.56665,29.347412 39.04004,27.819214 39.039673,25.94104 C39.039673,25.94104 39.039673,25.94104 39.039673,25.94043 C39.039673,25.94043 39.039673,25.94043 39.039673,25.939697 C39.04004,24.06128 40.56665,22.534058 42.443176,22.534058 C44.31964,22.534058 45.846558,24.06189 45.846558,25.94043 C45.846558,27.819214 44.31964,29.347412 42.443176,29.347412 ZM42.843018,6.9143066 C42.843018,6.9143066 38.542114,6.9143066 38.542114,6.9143066 C38.1084,6.9143066 37.756714,7.2663574 37.756714,7.7000732 C37.756714,7.7000732 37.756714,15.09021 37.756714,15.09021 C37.756714,15.524536 38.1084,15.876831 38.542114,15.876831 C38.542114,15.876831 46.995422,15.876831 46.995422,15.876831 C47.429016,15.876831 47.7807,15.524536 47.7807,15.09021 C47.7807,15.09021 47.7807,11.855103 47.7807,11.855103 C47.7807,9.130493 45.565674,6.9143066 42.843018,6.9143066 ZM46.20996,14.304199 C46.20996,14.304199 39.327637,14.304199 39.327637,14.304199 C39.327637,14.304199 39.327637,8.486694 39.327637,8.486694 C39.327637,8.486694 42.843018,8.486694 42.843018,8.486694 C44.699707,8.486694 46.20996,9.997803 46.20996,11.855103 C46.20996,11.855103 46.20996,14.304199 46.20996,14.304199 ZM21.367615,23.913452 C20.251099,23.913452 19.342712,24.822754 19.342712,25.94043 C19.342712,27.05774 20.251099,27.967285 21.367615,27.967285 C22.484192,27.967285 23.392395,27.05774 23.392395,25.94043 C23.392395,24.822754 22.484192,23.913452 21.367615,23.913452 ZM21.367615,26.395264 C21.117188,26.395264 20.913391,26.19104 20.913391,25.94043 C20.913391,25.689453 21.117188,25.48584 21.367615,25.48584 C21.618042,25.48584 21.821716,25.689453 21.821716,25.94043 C21.821716,26.19104 21.618042,26.395264 21.367615,26.395264 ZM42.443176,23.913452 C41.326538,23.913452 40.41815,24.822754 40.41815,25.94043 C40.41815,27.05774 41.326538,27.967285 42.443176,27.967285 C43.55963,27.967285 44.46808,27.05774 44.46808,25.94043 C44.46808,24.822754 43.55963,23.913452 42.443176,23.913452 ZM42.443176,26.395264 C42.19275,26.395264 41.988953,26.19104 41.988953,25.94043 C41.988953,25.689453 42.192627,25.48584 42.443176,25.48584 C42.69348,25.48584 42.897156,25.689453 42.897156,25.94043 C42.897156,26.19104 42.693237,26.395264 42.443176,26.395264 ZM46.995422,18.025269 C46.561523,18.025269 46.20996,18.37732 46.20996,18.812256 C46.20996,18.812256 46.20996,20.803589 46.20996,20.803589 C46.20996,21.237549 46.561523,21.589844 46.995422,21.589844 C47.429016,21.589844 47.7807,21.237549 47.7807,20.803589 C47.7807,20.803589 47.7807,18.812256 47.7807,18.812256 C47.7807,18.37732 47.429016,18.025269 46.995422,18.025269 Z"/>
</svg>