<svg xmlns="http://www.w3.org/2000/svg"
 xmlns:xlink="http://www.w3.org/1999/xlink"
 width="24px" height="23px"  viewBox="0 0 24 23">
<path fill-rule="evenodd"  fill="#ffffff"
 d="M4.145752,5.880539 C2.9591064,5.880539 1.9998779,4.9213486 1.9998779,3.7350159 C1.9998779,2.5480347 2.9591064,1.5891685 4.145752,1.5891685 C5.3325195,1.5891685 6.291748,2.5480347 6.291748,3.7350159 C6.291748,4.9213486 5.3325195,5.880539 4.145752,5.880539 ZM4.145752,13.749855 C2.9591064,13.749855 1.9998779,12.7896805 1.9998779,11.603027 C1.9998779,10.416695 2.9591064,9.457832 4.145752,9.457832 C5.3325195,9.457832 6.291748,10.416695 6.291748,11.603027 C6.291748,12.7896805 5.3325195,13.749855 4.145752,13.749855 ZM4.145752,21.617859 C2.9591064,21.617859 1.9998779,20.658989 1.9998779,19.472008 C1.9998779,18.285355 2.9591064,17.326164 4.145752,17.326164 C5.3325195,17.326164 6.291748,18.285355 6.291748,19.472008 C6.291748,20.658989 5.3325195,21.617859 4.145752,21.617859 ZM12.014282,5.880539 C10.827637,5.880539 9.868286,4.9213486 9.868286,3.7350159 C9.868286,2.5480347 10.827637,1.5891685 12.014282,1.5891685 C13.20105,1.5891685 14.160156,2.5480347 14.160156,3.7350159 C14.160156,4.9213486 13.20105,5.880539 12.014282,5.880539 ZM12.014282,13.749855 C10.827637,13.749855 9.868286,12.7896805 9.868286,11.603027 C9.868286,10.416695 10.827637,9.457832 12.014282,9.457832 C13.20105,9.457832 14.160156,10.416695 14.160156,11.603027 C14.160156,12.7896805 13.20105,13.749855 12.014282,13.749855 ZM12.014282,21.617859 C10.827637,21.617859 9.868286,20.658989 9.868286,19.472008 C9.868286,18.285355 10.827637,17.326164 12.014282,17.326164 C13.20105,17.326164 14.160156,18.285355 14.160156,19.472008 C14.160156,20.658989 13.20105,21.617859 12.014282,21.617859 ZM19.882812,5.880539 C18.696167,5.880539 17.736938,4.9213486 17.736938,3.7350159 C17.736938,2.5480347 18.696167,1.5891685 19.882812,1.5891685 C21.06958,1.5891685 22.028809,2.5480347 22.028809,3.7350159 C22.028809,4.9213486 21.06958,5.880539 19.882812,5.880539 ZM19.882812,13.749855 C18.696167,13.749855 17.736938,12.7896805 17.736938,11.603027 C17.736938,10.416695 18.696167,9.457832 19.882812,9.457832 C21.06958,9.457832 22.028809,10.416695 22.028809,11.603027 C22.028809,12.7896805 21.06958,13.749855 19.882812,13.749855 ZM19.882812,21.617859 C18.696167,21.617859 17.736938,20.658989 17.736938,19.472008 C17.736938,18.285355 18.696167,17.326164 19.882812,17.326164 C21.06958,17.326164 22.028809,18.285355 22.028809,19.472008 C22.028809,20.658989 21.06958,21.617859 19.882812,21.617859 Z"/>
</svg>