<svg xmlns="http://www.w3.org/2000/svg"
 xmlns:xlink="http://www.w3.org/1999/xlink"
 width="21px" height="19px"  viewBox="0 0 21 19">
<path fill-rule="evenodd"  fill="#243f4d"
 d="M10.912964,17.244453 C10.817749,17.244453 10.722412,17.226479 10.633423,17.18824 C10.280029,17.038559 1.9831543,13.438721 1.9831543,6.4285965 C2.0743408,3.778801 4.1900635,1.7211914 6.800659,1.7211914 C8.544067,1.7211914 10.066772,2.6392136 10.912964,4.031105 C11.7595215,2.6392136 13.282349,1.7211914 15.0251465,1.7211914 C17.634521,1.7211914 19.750244,3.778801 19.842041,6.4047394 C19.842041,13.438721 11.545044,17.038559 11.192871,17.18824 C11.103394,17.226479 11.008179,17.244453 10.912964,17.244453 ZM6.800659,3.106224 C4.9543457,3.106224 3.4575195,4.575897 3.3928223,6.4524536 C3.3931885,11.859566 9.5177,15.114944 10.912964,15.786865 C12.308228,15.114944 18.433105,11.856949 18.433105,6.4285965 C18.367554,4.575897 16.870117,3.106224 15.0251465,3.106224 C13.180176,3.106224 11.682861,4.575897 11.61731,6.4524536 C11.604858,6.82502 11.29248,7.121437 10.912964,7.121437 C10.912964,7.121437 10.912964,7.121437 10.912964,7.121437 C10.532471,7.121437 10.221069,6.82502 10.208252,6.4524536 C10.143555,4.575897 8.646606,3.106224 6.800659,3.106224 Z"/>
</svg>