<svg width="7px" height="12px"  viewBox="0 0 9 14">
<path  fill="#262626"
d="M2.333374,12.687012 C2.1835938,12.687012 2.0338135,12.625488 1.9223633,12.504395 C1.8187256,12.390137 1.7670898,12.245117 1.7670898,12.099609 C1.7670898,11.943359 1.8265381,11.788574 1.9439697,11.672852 C1.9439697,11.672852 6.490967,7.197754 6.490967,7.197754 C6.490967,7.197754 1.9439697,2.724121 1.9439697,2.724121 C1.8265381,2.6083984 1.7670898,2.453125 1.7670898,2.2973633 C1.7670898,2.1523438 1.8187256,2.0063477 1.9223633,1.8930664 C2.1379395,1.6567383 2.4956055,1.6474609 2.7227783,1.8701172 C2.7227783,1.8701172 7.7000732,6.7680664 7.7000732,6.7680664 C7.70459,6.7719727 7.7093506,6.7768555 7.713867,6.7822266 C7.7617188,6.8310547 7.800537,6.888672 7.8272705,6.9506836 C7.8272705,6.9506836 7.8272705,6.9506836 7.8272705,6.9506836 C7.828247,6.9506836 7.828247,6.9506836 7.828247,6.9506836 C7.8623047,7.0288086 7.8797607,7.1123047 7.8797607,7.1953125 C7.8797607,7.196289 7.8797607,7.1972656 7.8797607,7.197754 C7.8797607,7.2836914 7.8623047,7.3686523 7.8272705,7.4472656 C7.8272705,7.4472656 7.8272705,7.4472656 7.8272705,7.4472656 C7.8272705,7.447754 7.826294,7.447754 7.826294,7.447754 C7.826294,7.4487305 7.826294,7.4487305 7.826294,7.4487305 C7.826294,7.4487305 7.826294,7.4487305 7.826294,7.449707 C7.798706,7.5092773 7.7617188,7.5649414 7.7148438,7.6137695 C7.710205,7.6191406 7.70459,7.623047 7.7000732,7.628418 C7.7000732,7.628418 2.7227783,12.526855 2.7227783,12.526855 C2.6136475,12.634766 2.4733887,12.687012 2.333374,12.687012 Z"/>
</svg>