<svg xmlns="http://www.w3.org/2000/svg"
 xmlns:xlink="http://www.w3.org/1999/xlink"
 width="52px" height="47px"  viewBox="0 0 52 47">
<path fill-rule="evenodd"  fill="#a3bbc8"
 d="M47.42505,32.315063 C46.9635,32.315063 46.589478,32.68994 46.589478,33.151367 C46.589478,33.151367 46.589478,41.416504 46.589478,41.416504 C46.589478,42.60974 45.619263,43.581665 44.426758,43.581665 C44.426758,43.581665 5.092163,43.581665 5.092163,43.581665 C3.8995361,43.581665 2.9294434,42.60974 2.9294434,41.416504 C2.9294434,41.416504 2.9294434,29.497314 2.9294434,29.497314 C2.9294434,29.497314 30.220459,29.497314 30.220459,29.497314 C30.682007,29.497314 31.056152,29.123413 31.056152,28.660645 C31.056152,28.199219 30.682007,27.824097 30.220459,27.824097 C30.220459,27.824097 2.9294434,27.824097 2.9294434,27.824097 C2.9294434,27.824097 2.9294434,22.354248 2.9294434,22.354248 C2.9294434,22.354248 12.7977295,22.354248 12.7977295,22.354248 C13.259277,22.354248 13.633545,21.979614 13.633545,21.517578 C13.633545,21.056152 13.259277,20.681274 12.7977295,20.681274 C12.7977295,20.681274 2.9294434,20.681274 2.9294434,20.681274 C2.9294434,20.681274 2.9294434,17.796753 2.9294434,17.796753 C2.9294434,16.602905 3.8995361,15.631348 5.092163,15.631348 C5.092163,15.631348 30.220459,15.631348 30.220459,15.631348 C30.682007,15.631348 31.056152,15.25647 31.056152,14.794434 C31.056152,14.332886 30.682007,13.958069 30.220459,13.958069 C30.220459,13.958069 5.092163,13.958069 5.092163,13.958069 C2.9780273,13.95874 1.2581787,15.68042 1.2581787,17.796753 C1.2581787,17.796753 1.2581787,41.416504 1.2581787,41.416504 C1.2581787,43.531982 2.9780273,45.254272 5.092163,45.254272 C5.092163,45.254272 44.427124,45.254272 44.427124,45.254272 C46.54126,45.254272 48.26111,43.532593 48.26111,41.416504 C48.26111,41.416504 48.26111,33.151367 48.26111,33.151367 C48.260742,32.68994 47.886597,32.315063 47.42505,32.315063 ZM30.220459,20.681274 C30.220459,20.681274 16.004028,20.681274 16.004028,20.681274 C15.54248,20.681274 15.168457,21.056152 15.168457,21.518188 C15.168457,21.980347 15.54248,22.354858 16.004028,22.354858 C16.004028,22.354858 30.220459,22.354858 30.220459,22.354858 C30.682007,22.354858 31.056152,21.980347 31.056152,21.518188 C31.056152,21.056152 30.682007,20.681274 30.220459,20.681274 ZM20.981934,32.235718 C20.981934,32.235718 6.7108154,32.235718 6.7108154,32.235718 C6.2492676,32.235718 5.875122,32.61084 5.875122,33.07263 C5.875122,33.535156 6.2492676,33.909668 6.7108154,33.909668 C6.7108154,33.909668 20.981934,33.909668 20.981934,33.909668 C21.443481,33.909668 21.817505,33.535156 21.817505,33.07263 C21.817505,32.61084 21.443481,32.235718 20.981934,32.235718 ZM14.895752,36.228027 C14.895752,36.228027 6.7108154,36.228027 6.7108154,36.228027 C6.2492676,36.228027 5.875122,36.60254 5.875122,37.06433 C5.875122,37.5271 6.2492676,37.901367 6.7108154,37.901367 C6.7108154,37.901367 14.895508,37.901367 14.895508,37.901367 C15.357178,37.901367 15.731323,37.5271 15.731323,37.06433 C15.731323,36.60254 15.357178,36.228027 14.895752,36.228027 ZM49.53418,22.62085 C49.995728,22.62085 50.369995,22.245972 50.369995,21.78418 C50.369995,21.78418 50.369995,17.011108 50.369995,17.011108 C50.369995,15.55481 49.343018,14.334595 47.976074,14.037109 C47.976074,14.037109 47.976074,8.020569 47.976074,8.020569 C47.976074,4.380188 45.0177,1.4182739 41.381226,1.4182739 C37.74463,1.4182739 34.786377,4.380188 34.786377,8.020569 C34.786377,8.020569 34.786377,14.037109 34.786377,14.037109 C33.419556,14.335205 32.393066,15.555542 32.393066,17.01184 C32.393066,17.01184 32.393066,27.758667 32.393066,27.758667 C32.393066,29.4375 33.757446,30.803223 35.43445,30.803223 C35.43445,30.803223 47.32849,30.803223 47.32849,30.803223 C49.00537,30.803223 50.369995,29.4375 50.369995,27.758667 C50.369995,27.758667 50.369995,24.572876 50.369995,24.572876 C50.369995,24.111084 49.995728,23.736572 49.53418,23.736572 C49.07263,23.736572 48.698364,24.111084 48.698364,24.572876 C48.698364,24.572876 48.698364,27.758667 48.698364,27.758667 C48.698364,28.514648 48.083984,29.129639 47.32849,29.129639 C47.32849,29.129639 35.43445,29.129639 35.43445,29.129639 C34.678955,29.129639 34.064575,28.514648 34.064575,27.758667 C34.064575,27.758667 34.064575,17.011108 34.064575,17.011108 C34.064575,16.255615 34.6792,15.640137 35.43445,15.640137 C35.43445,15.640137 47.32849,15.640137 47.32849,15.640137 C48.083984,15.640137 48.698364,16.255615 48.698364,17.011108 C48.698364,17.011108 48.698364,21.78418 48.698364,21.78418 C48.698486,22.245972 49.07263,22.62085 49.53418,22.62085 ZM46.304565,13.967224 C46.304565,13.967224 36.45764,13.967224 36.45764,13.967224 C36.45764,13.967224 36.45764,8.020569 36.45764,8.020569 C36.45764,5.302429 38.66626,3.0922241 41.381104,3.0922241 C44.095947,3.0922241 46.304443,5.302429 46.304443,8.020569 C46.304443,8.020569 46.304443,13.967224 46.304443,13.967224 C46.304443,13.967224 46.304565,13.967224 46.304565,13.967224 ZM41.38159,18.288696 C39.676514,18.288696 38.28955,19.677002 38.28955,21.384277 C38.28955,22.800903 39.245605,23.997437 40.545776,24.36316 C40.545776,24.36316 40.545776,26.403687 40.545776,26.403687 C40.545776,26.86621 40.91992,27.239746 41.38159,27.239746 C41.84314,27.239746 42.217285,26.86621 42.217285,26.403687 C42.217285,26.403687 42.217285,24.36316 42.217285,24.36316 C43.517334,23.997437 44.473633,22.800903 44.473633,21.384277 C44.47351,19.677002 43.086426,18.288696 41.38159,18.288696 ZM41.38159,22.806152 C40.598145,22.806152 39.960938,22.16858 39.960938,21.384277 C39.960938,20.599854 40.598145,19.96228 41.38159,19.96228 C42.164795,19.96228 42.802246,20.600464 42.802246,21.384277 C42.802246,22.16858 42.164795,22.806152 41.38159,22.806152 Z"/>
</svg>