<svg xmlns="http://www.w3.org/2000/svg"
 xmlns:xlink="http://www.w3.org/1999/xlink"
 width="25px" height="28px"  viewBox="0 0 25 28">
<path fill-rule="evenodd"  fill="#ffffff"
 d="M22.68396,16.739746 C22.68396,16.739746 6.6399536,26.536133 6.6399536,26.536133 C6.1393433,26.84253 5.559265,26.996826 4.977234,26.996826 C4.4976807,26.996826 4.0168457,26.891602 3.578064,26.68042 C2.6064453,26.20996 1.9994507,25.292969 1.9994507,24.294922 C1.9994507,24.294922 1.9994507,4.699951 1.9994507,4.699951 C1.9994507,3.7011719 2.6064453,2.782959 3.578064,2.3134766 C4.5493164,1.8452148 5.7268066,1.8999023 6.6399536,2.4570312 C6.6399536,2.4570312 22.68396,12.254883 22.68396,12.254883 C23.506348,12.75708 23.99945,13.597656 23.99945,14.496582 C23.99945,15.395752 23.506348,16.23706 22.68396,16.739746 Z"/>
</svg>