<svg 
width="24px" height="24px"  viewBox="0 0 24 24">
<path fill-rule="evenodd"  fill="#a3bbc8"
d="M21.45044,18.798096 C21.45044,18.798096 16.861816,14.208984 16.861816,14.208984 C16.178223,15.272461 15.273682,16.177734 14.210571,16.860107 C14.210571,16.860107 18.799072,21.448242 18.799072,21.448242 C19.531494,22.180908 20.719238,22.180908 21.45044,21.448242 C22.182861,20.718384 22.182861,19.530518 21.45044,18.798096 ZM16.999817,9.498657 C16.999817,5.3573 13.641663,1.9976807 9.499817,1.9976807 C5.3580933,1.9976807 1.999939,5.3573 1.999939,9.498657 C1.999939,13.640381 5.3580933,16.998657 9.499817,16.998657 C13.641663,16.998657 16.999817,13.640381 16.999817,9.498657 ZM9.499817,15.123413 C6.3981323,15.123413 3.874939,12.600708 3.874939,9.498657 C3.874939,6.3964844 6.3981323,3.8725586 9.499817,3.8725586 C12.601624,3.8725586 15.124817,6.3964844 15.124817,9.498657 C15.124817,12.600708 12.601624,15.123413 9.499817,15.123413 ZM5.124878,9.498657 C5.124878,9.498657 6.374878,9.498657 6.374878,9.498657 C6.374878,7.775635 7.7769165,6.3740234 9.499817,6.3740234 C9.499817,6.3740234 9.499817,5.123291 9.499817,5.123291 C7.0877686,5.123291 5.124878,7.086792 5.124878,9.498657 Z"/>
</svg>