<svg xmlns="http://www.w3.org/2000/svg"
 xmlns:xlink="http://www.w3.org/1999/xlink"
 width="53px" height="52px"  viewBox="0 0 53 52">
<path fill-rule="evenodd"  fill="#a3bbc8"
 d="M47.311523,12.669128 C47.037354,12.229553 46.459076,12.095581 46.019714,12.369446 C45.580383,12.643982 45.446503,13.222412 45.72046,13.661621 C47.960205,17.250977 49.143982,21.396362 49.143982,25.64978 C49.143982,38.15625 38.96924,48.3302 26.46315,48.3302 C21.512207,48.3302 16.808456,46.76416 12.860474,43.80066 C12.446533,43.489746 11.858765,43.57312 11.547836,43.98755 C11.237122,44.401245 11.3207855,44.98987 11.735062,45.30005 C16.01001,48.509277 21.102844,50.206177 26.463379,50.206177 C40.003357,50.206177 51.019073,39.189575 51.019073,25.64978 C51.019073,21.04602 49.737,16.556519 47.311523,12.669128 ZM24.281555,34.6084 C24.281555,34.6084 16.731552,34.6084 16.731552,34.6084 C16.731552,34.6084 21.474792,29.86499 21.474792,29.86499 C23.889252,27.451172 25.218948,24.2406 25.218948,20.82605 C25.218948,17.603638 22.597336,14.981689 19.374786,14.981689 C16.152374,14.981689 13.530518,17.603638 13.530518,20.82605 C13.530518,21.343994 13.950287,21.763672 14.46814,21.763672 C14.985992,21.763672 15.40564,21.343994 15.40564,20.82605 C15.40564,18.637085 17.186218,16.856934 19.374786,16.856934 C21.563248,16.856934 23.343842,18.637085 23.343842,20.82605 C23.343842,23.740234 22.209259,26.479492 20.148865,28.539795 C20.148865,28.539795 13.805176,34.882935 13.805176,34.882935 C13.537048,35.151245 13.456818,35.554443 13.601929,35.90515 C13.74704,36.255493 14.088882,36.483643 14.467911,36.483643 C14.467911,36.483643 24.28122,36.483643 24.28122,36.483643 C24.799072,36.483643 25.218842,36.063354 25.218842,35.546265 C25.218842,35.02832 24.799286,34.6084 24.281555,34.6084 ZM39.32138,28.170532 C39.32138,28.170532 36.72003,28.170532 36.72003,28.170532 C36.72003,28.170532 36.72003,26.653687 36.72003,26.653687 C36.72003,26.136108 36.300385,25.71582 35.78253,25.71582 C35.26468,25.71582 34.84491,26.136108 34.84491,26.653687 C34.84491,26.653687 34.84491,28.170532 34.84491,28.170532 C34.84491,28.170532 29.558777,28.170532 29.558777,28.170532 C29.558777,28.170532 34.84491,19.318481 34.84491,19.318481 C34.84491,19.318481 34.84491,23.528076 34.84491,23.528076 C34.84491,24.046143 35.26468,24.465454 35.78253,24.465454 C36.300385,24.465454 36.72003,24.046143 36.72003,23.528076 C36.72003,23.528076 36.72003,15.919312 36.72003,15.919312 C36.72003,15.916016 36.71924,15.9140625 36.719116,15.910767 C36.71591,15.595093 36.554077,15.288208 36.263184,15.114624 C35.81848,14.849243 35.24295,14.994751 34.977325,15.438477 C34.977325,15.438477 27.101837,28.62732 27.101837,28.62732 C26.928802,28.916626 26.924927,29.277344 27.09143,29.570557 C27.257935,29.86438 27.569458,30.045776 27.90683,30.045776 C27.90683,30.045776 34.84491,30.045776 34.84491,30.045776 C34.84491,30.045776 34.84491,35.546265 34.84491,35.546265 C34.84491,36.063354 35.2648,36.483643 35.782654,36.483643 C36.300385,36.483643 36.720154,36.063354 36.720154,35.546265 C36.720154,35.546265 36.720154,30.045776 36.720154,30.045776 C36.720154,30.045776 39.32138,30.045776 39.32138,30.045776 C39.839233,30.045776 40.25888,29.625488 40.25888,29.107788 C40.25888,28.590088 39.83899,28.170532 39.32138,28.170532 ZM44.65091,5.538086 C44.638428,5.0203857 44.207672,4.6122437 43.691193,4.622986 C43.173584,4.635742 42.763885,5.0648193 42.776123,5.583191 C42.776123,5.583191 42.817688,7.33197 42.817688,7.33197 C40.928375,5.640686 38.802734,4.2612305 36.472595,3.220337 C33.315643,1.8091431 29.947876,1.0944214 26.463379,1.0944214 C12.922958,1.0944214 1.9071045,12.109619 1.9071045,25.64978 C1.9071045,32.298462 4.521515,38.524536 9.268631,43.180664 C9.45105,43.36035 9.688171,43.44922 9.924957,43.44922 C10.16803,43.44922 10.410645,43.35608 10.594208,43.168213 C10.956863,42.798584 10.951141,42.205444 10.581497,41.843018 C6.1970367,37.541138 3.7822266,31.790283 3.7822266,25.65039 C3.7822266,13.143677 13.95694,2.9692993 26.46315,2.9692993 C32.04065,2.9692993 37.434937,5.0498047 41.570038,8.736572 C41.570038,8.736572 39.727417,8.7803955 39.727417,8.7803955 C39.209686,8.791809 38.799988,9.221924 38.812347,9.739563 C38.824493,10.249756 39.24164,10.654297 39.749268,10.654297 C39.756714,10.654297 39.764496,10.654297 39.771942,10.654297 C39.771942,10.654297 43.832184,10.558228 43.832184,10.558228 C44.349792,10.545837 44.75952,10.116089 44.74704,9.598694 C44.74704,9.598694 44.65091,5.538086 44.65091,5.538086 Z"/>
</svg>