<svg xmlns="http://www.w3.org/2000/svg"
 xmlns:xlink="http://www.w3.org/1999/xlink"
 width="25px" height="12px"  viewBox="0 0 25 12">
<path fill-rule="evenodd"  fill="#ffffff"
 d="M2.2958984,7.471985 C2.2958984,7.471985 2.2877808,7.4716187 2.2877808,7.4716187 C2.2877808,7.4716187 19.244019,7.4716187 19.244019,7.4716187 C19.244019,7.4716187 19.143555,10.329285 19.143555,10.329285 C19.089294,10.383179 19.05957,10.456421 19.05957,10.53418 C19.05957,10.610962 19.089294,10.6848755 19.143555,10.73877 C19.143555,10.73877 19.316162,10.911316 19.316162,10.911316 C19.37024,10.967224 19.442505,10.997253 19.519714,10.997253 C19.59674,10.997253 19.66919,10.967224 19.72345,10.912964 C19.72345,10.912964 23.915771,6.70166 23.915771,6.70166 C23.970215,6.6470947 23.999878,6.5738525 23.999878,6.4960938 C23.999878,6.4193115 23.970215,6.345764 23.915771,6.2928467 C23.915771,6.2928467 19.72345,2.079895 19.72345,2.079895 C19.66919,2.0266113 19.59674,1.9962158 19.519714,1.9962158 C19.442505,1.9962158 19.37024,2.0266113 19.316162,2.079895 C19.316162,2.079895 19.143555,2.253418 19.143555,2.253418 C19.089294,2.3086548 19.05957,2.380249 19.05957,2.4570312 C19.05957,2.5344849 19.089294,2.6030884 19.143555,2.6583252 C19.143555,2.6583252 19.25653,5.522522 19.25653,5.522522 C19.25653,5.522522 2.29187,5.522522 2.29187,5.522522 C2.1331787,5.522522 1.9996338,5.6584473 1.9996338,5.817627 C1.9996338,5.817627 1.9996338,7.187622 1.9996338,7.187622 C1.9996338,7.3468018 2.137085,7.471985 2.2958984,7.471985 Z"/>
</svg>