<svg width="26px" height="21px"  viewBox="0 0 26 21">
<path fill-rule="evenodd"  fill="#a3bbc8"
d="M23.989746,7.8201904 C23.906738,6.268799 23.250305,4.8125 22.141174,3.7196045 C21.015503,2.6098633 19.54541,1.9990234 18.001953,1.9990234 C15.690674,1.9990234 14.054199,3.7840576 13.175049,4.7435303 C13.125061,4.798462 13.071289,4.8566895 13.018738,4.913208 C12.990601,4.881836 12.9626465,4.8494873 12.935974,4.819336 C12.132385,3.902954 10.460083,1.9990234 7.998108,1.9990234 C6.454651,1.9990234 4.984741,2.6098633 3.8590088,3.7196045 C2.749817,4.8125 2.0933838,6.268799 2.010437,7.8201904 C1.9280396,9.36145 2.3198853,10.700317 3.2808228,12.157959 C4.142029,13.465576 6.3848267,15.532349 8.04364,16.905518 C9.748596,18.316772 11.994263,19.998535 13.00946,19.998535 C14.0408325,19.998535 16.278442,18.319336 17.973999,16.911743 C19.619934,15.544678 21.85028,13.479614 22.719543,12.157593 C23.366394,11.17395 24.095215,9.791504 23.989746,7.8201904 ZM21.613586,11.430176 C20.981995,12.390991 19.201782,14.165894 17.183472,15.847656 C14.776978,17.852295 13.352234,18.642944 13.01062,18.673584 C12.669373,18.638672 11.24115,17.840942 8.822876,15.831299 C6.7927856,14.145264 5.0099487,12.377197 4.3861084,11.429443 C3.5910034,10.223267 3.2659912,9.131714 3.3322144,7.8911133 C3.466919,5.3723145 5.5601807,3.3216553 7.998108,3.3216553 C9.860718,3.3216553 11.214111,4.8641357 11.941284,5.6920166 C12.368713,6.1795654 12.604248,6.4472656 13.000183,6.4472656 C13.4088745,6.4472656 13.672424,6.1606445 14.150879,5.6376953 C14.944641,4.7717285 16.27295,3.3216553 18.001953,3.3216553 C20.440002,3.3216553 22.533142,5.3723145 22.667969,7.8911133 C22.734985,9.145386 22.419739,10.2039795 21.613586,11.430176 Z"/>
</svg>