<?xml version="1.0" encoding="utf-8"?><svg viewBox="0 0 637 637" xmlns="http://www.w3.org/2000/svg" xmlns:xlink="http://www.w3.org/1999/xlink"><style>:root>svg{display:none}:root>svg:target{display:block}</style><svg viewBox="0 0 25 12" id="arrow" xmlns="http://www.w3.org/2000/svg"><path fill-rule="evenodd" d="M2.296 7.472h-.008 16.956l-.1 2.857a.287.287 0 00-.084.205c0 .077.03.15.084.205l.172.172a.286.286 0 00.407.002l4.193-4.211a.289.289 0 000-.41L19.723 2.08a.29.29 0 00-.407 0l-.172.173a.288.288 0 000 .405l.113 2.865H2.292A.298.298 0 002 5.818v1.37c0 .159.137.284.296.284z"/></svg><svg viewBox="0 0 26 23" id="backet"><path fill-rule="evenodd" d="M2.814 3.629h2.333L8.47 15.667c.095.353.42.597.787.597h10.214c.326 0 .61-.19.746-.488l3.717-8.56a.828.828 0 00-.068-.776.81.81 0 00-.678-.366H11.902a.817.817 0 000 1.631H21.94l-3.011 6.929H9.867L6.544 2.596a.814.814 0 00-.787-.598H2.814A.818.818 0 002 2.814c0 .448.366.815.814.815zm5.67 18.37a1.849 1.849 0 000-3.696 1.848 1.848 0 000 3.696zm11.53 0h.135c.489-.041.936-.259 1.262-.64a1.85 1.85 0 00-1.52-3.057 1.85 1.85 0 00-1.708 1.971 1.85 1.85 0 001.83 1.726z"/></svg><svg viewBox="0 0 22 20" id="backet-header" xmlns="http://www.w3.org/2000/svg"><path fill-rule="evenodd" d="M7.526 18.978c-.536 0-1.063-.21-1.461-.607a2.066 2.066 0 01-.453-2.26 2.068 2.068 0 011.915-1.28h.006c.55 0 1.07.214 1.46.602.393.394.61.913.61 1.467 0 .84-.5 1.593-1.278 1.917-.258.108-.53.16-.799.16zm.007-2.963h-.004a.887.887 0 00-.628 1.518.89.89 0 10.632-1.518zm8.385 2.963c-.537 0-1.064-.21-1.461-.607a2.065 2.065 0 01-.452-2.26 2.065 2.065 0 011.913-1.28c.546-.04 1.08.218 1.468.603.392.393.607.912.607 1.466a2.064 2.064 0 01-1.274 1.917c-.26.108-.532.16-.8.16zm.006-2.963h-.001c-.331.032-.685.215-.823.548a.89.89 0 10.824-.548zm-11.279.163a.592.592 0 01-.536-.843c.579-1.24 1.627-1.973 3.054-2.15L6.108 7.792a.593.593 0 011.163-.227l1.091 5.578h9.423l1.807-6.771H6.29A4.354 4.354 0 012.007 2.68a.591.591 0 111.171-.175 3.165 3.165 0 003.115 2.682h14.07a.592.592 0 01.573.745l-2.123 7.956a.594.594 0 01-.573.44H7.885a.043.043 0 00-.023 0c-1.33 0-2.205.493-2.68 1.51a.593.593 0 01-.537.34z"/></svg><svg viewBox="0 0 24 24" id="calendar" xmlns="http://www.w3.org/2000/svg"><defs><style>.dcls-1{fill:none;stroke:#000;stroke-linecap:round;stroke-linejoin:round;stroke-width:2px}</style></defs><g id="d_68.calendar" data-name="68.calendar"><rect class="dcls-1" x="1" y="3" width="22" height="20" rx="3" ry="3"/><path class="dcls-1" d="M1 9h22M12 5V1M6 5V1M18 5V1M5 14h2M11 14h2M17 14h2M5 18h2M11 18h2M17 18h2"/></g></svg><svg viewBox="0 0 52 32" id="delivery" xmlns="http://www.w3.org/2000/svg"><path fill-rule="evenodd" d="M10.816 6.334H4.69a.786.786 0 000 1.572h6.126a.786.786 0 000-1.572zm.524 11.006H5.738a.786.786 0 000 1.572h5.602a.785.785 0 000-1.572zm-2.094-4.717h-6.65a.785.785 0 100 1.572h6.65a.786.786 0 000-1.572zm0 11.006h-.644a.786.786 0 000 1.573h.644a.786.786 0 000-1.573zm-3.263 0H2.596a.786.786 0 000 1.573h3.387a.786.786 0 000-1.573zm36.86-19.86h-6.657V2.354a.786.786 0 00-.786-.786H23.225a.786.786 0 000 1.572h11.39v17.22a.786.786 0 101.57 0V5.342h6.658c3.589 0 6.509 2.922 6.509 6.513v13.3h-1.997a4.983 4.983 0 00-4.912-4.194 4.983 4.983 0 00-4.912 4.193h-1.345V24.03a.785.785 0 10-1.571 0v1.125h-8.336a4.983 4.983 0 00-4.911-4.193 4.983 4.983 0 00-4.912 4.193h-1.634V3.14h5.261a.786.786 0 000-1.572h-6.046a.786.786 0 00-.785.786V25.94c0 .434.351.787.785.787h2.419a4.983 4.983 0 004.912 4.192 4.983 4.983 0 004.911-4.192h11.252a4.983 4.983 0 004.912 4.192 4.983 4.983 0 004.911-4.192h2.783a.786.786 0 00.785-.787V11.855c0-4.458-3.624-8.086-8.079-8.086zM21.368 29.347a3.409 3.409 0 01-3.404-3.407 3.409 3.409 0 013.404-3.406 3.409 3.409 0 013.403 3.406 3.41 3.41 0 01-3.403 3.407zm21.075 0a3.41 3.41 0 01-3.403-3.406v-.001a3.408 3.408 0 013.403-3.406 3.409 3.409 0 013.404 3.406 3.409 3.409 0 01-3.404 3.407zm.4-22.433h-4.3a.786.786 0 00-.786.786v7.39c0 .435.351.787.785.787h8.453a.786.786 0 00.786-.787v-3.235a4.945 4.945 0 00-4.938-4.94zm3.367 7.39h-6.882V8.487h3.515a3.371 3.371 0 013.367 3.368v2.45zm-24.842 9.61c-1.117 0-2.025.909-2.025 2.026 0 1.118.908 2.027 2.025 2.027a2.028 2.028 0 000-4.054zm0 2.481a.455.455 0 11.002-.91.455.455 0 01-.002.91zm21.075-2.482c-1.116 0-2.025.91-2.025 2.027 0 1.118.909 2.027 2.025 2.027 1.117 0 2.025-.91 2.025-2.027a2.028 2.028 0 00-2.025-2.027zm0 2.482a.455.455 0 11.002-.91.455.455 0 01-.002.91zm4.552-8.37a.786.786 0 00-.785.787v1.992a.786.786 0 101.57 0v-1.992a.786.786 0 00-.785-.787z"/></svg><svg viewBox="0 0 24 23" id="dots-header" xmlns="http://www.w3.org/2000/svg"><path fill-rule="evenodd" d="M4.146 5.88A2.144 2.144 0 012 3.736c0-1.187.96-2.146 2.146-2.146 1.187 0 2.146.959 2.146 2.146 0 1.186-.96 2.146-2.146 2.146zm0 7.87A2.145 2.145 0 012 11.603c0-1.186.96-2.145 2.146-2.145 1.187 0 2.146.959 2.146 2.145 0 1.187-.96 2.147-2.146 2.147zm0 7.868A2.144 2.144 0 012 19.472c0-1.187.96-2.146 2.146-2.146 1.187 0 2.146.96 2.146 2.146 0 1.187-.96 2.146-2.146 2.146zM12.014 5.88a2.144 2.144 0 01-2.146-2.146c0-1.187.96-2.146 2.146-2.146 1.187 0 2.146.959 2.146 2.146 0 1.186-.959 2.146-2.146 2.146zm0 7.869a2.145 2.145 0 01-2.146-2.147c0-1.186.96-2.145 2.146-2.145 1.187 0 2.146.959 2.146 2.145 0 1.187-.959 2.147-2.146 2.147zm0 7.868a2.144 2.144 0 01-2.146-2.146c0-1.187.96-2.146 2.146-2.146 1.187 0 2.146.96 2.146 2.146 0 1.187-.959 2.146-2.146 2.146zM19.883 5.88a2.144 2.144 0 01-2.146-2.146c0-1.187.96-2.146 2.146-2.146 1.187 0 2.146.959 2.146 2.146 0 1.186-.96 2.146-2.146 2.146zm0 7.869a2.145 2.145 0 01-2.146-2.147c0-1.186.96-2.145 2.146-2.145 1.187 0 2.146.959 2.146 2.145 0 1.187-.96 2.147-2.146 2.147zm0 7.868a2.144 2.144 0 01-2.146-2.146c0-1.187.96-2.146 2.146-2.146 1.187 0 2.146.96 2.146 2.146 0 1.187-.96 2.146-2.146 2.146z"/></svg><svg viewBox="0 0 637 637" id="ellipse" xmlns="http://www.w3.org/2000/svg"><path fill-rule="evenodd" d="M319 2c175.074 0 317 141.926 317 317S494.074 636 319 636 2 494.074 2 319 143.926 2 319 2z"/></svg><svg viewBox="0 0 26 21" id="heart"><path fill-rule="evenodd" d="M23.99 7.82a6.211 6.211 0 00-1.849-4.1c-1.125-1.11-2.596-1.721-4.139-1.721-2.311 0-3.948 1.785-4.827 2.745l-.156.17-.083-.095C12.132 3.903 10.46 2 7.998 2c-1.543 0-3.013.61-4.139 1.72A6.21 6.21 0 002.01 7.82c-.082 1.541.31 2.88 1.27 4.338.862 1.308 3.105 3.374 4.764 4.748 1.705 1.41 3.95 3.093 4.965 3.093 1.032 0 3.27-1.68 4.965-3.087 1.646-1.367 3.876-3.432 4.746-4.754.646-.984 1.375-2.366 1.27-4.338zm-2.376 3.61c-.632.961-2.412 2.736-4.43 4.418-2.407 2.004-3.832 2.795-4.173 2.826-.342-.035-1.77-.833-4.188-2.843-2.03-1.686-3.813-3.454-4.437-4.402-.795-1.206-1.12-2.297-1.054-3.538.135-2.519 2.228-4.57 4.666-4.57 1.863 0 3.216 1.543 3.943 2.371.428.488.663.755 1.06.755.408 0 .671-.286 1.15-.81.794-.865 2.122-2.315 3.851-2.315 2.438 0 4.531 2.05 4.666 4.57.067 1.253-.248 2.312-1.054 3.538z"/></svg><svg viewBox="0 0 21 19" id="heart-header" xmlns="http://www.w3.org/2000/svg"><path fill-rule="evenodd" d="M10.913 17.244a.707.707 0 01-.28-.056c-.353-.15-8.65-3.75-8.65-10.76.091-2.65 2.207-4.707 4.818-4.707 1.743 0 3.266.918 4.112 2.31a4.796 4.796 0 014.112-2.31c2.61 0 4.725 2.058 4.817 4.684 0 7.034-8.297 10.634-8.65 10.783a.71.71 0 01-.279.056zM6.801 3.106c-1.847 0-3.343 1.47-3.408 3.346 0 5.408 6.125 8.663 7.52 9.335 1.395-.672 7.52-3.93 7.52-9.358-.065-1.853-1.563-3.323-3.408-3.323s-3.342 1.47-3.408 3.346a.7.7 0 01-.704.67.7.7 0 01-.705-.67c-.064-1.876-1.561-3.346-3.407-3.346z"/></svg><svg viewBox="0 0 9 14" id="news_arrow"><path d="M2.333 12.687c-.15 0-.3-.062-.41-.183a.6.6 0 01.021-.831l4.547-4.475-4.547-4.474a.598.598 0 01-.177-.427c0-.145.052-.29.155-.404a.552.552 0 01.8-.023L7.7 6.768l.014.014a.557.557 0 01.113.169h.001a.613.613 0 01.052.244v.003c0 .086-.018.17-.053.25v.002a.6.6 0 01-.112.164l-.015.014-4.977 4.899a.55.55 0 01-.39.16z"/></svg><svg viewBox="0 0 52 47" id="payment" xmlns="http://www.w3.org/2000/svg"><path fill-rule="evenodd" d="M47.425 32.315a.836.836 0 00-.836.836v8.266c0 1.193-.97 2.165-2.162 2.165H5.092a2.167 2.167 0 01-2.163-2.165v-11.92H30.22a.836.836 0 000-1.673H2.93v-5.47h9.868a.836.836 0 000-1.673H2.929v-2.884c0-1.194.97-2.166 2.163-2.166H30.22a.836.836 0 000-1.673H5.092a3.841 3.841 0 00-3.834 3.839v23.62a3.84 3.84 0 003.834 3.837h39.335a3.84 3.84 0 003.834-3.837V33.15a.837.837 0 00-.836-.836zM30.22 20.681H16.004a.836.836 0 000 1.674H30.22a.836.836 0 000-1.674zm-9.238 11.555H6.71a.837.837 0 000 1.674h14.27a.836.836 0 000-1.674zm-6.086 3.992H6.71a.836.836 0 000 1.673h8.185a.836.836 0 000-1.673zm34.638-13.607a.836.836 0 00.836-.837v-4.773a3.048 3.048 0 00-2.394-2.974V8.021c0-3.64-2.958-6.603-6.595-6.603-3.636 0-6.595 2.962-6.595 6.603v6.016a3.049 3.049 0 00-2.393 2.975v10.747a3.046 3.046 0 003.041 3.044h11.894a3.047 3.047 0 003.042-3.044v-3.186a.836.836 0 10-1.672 0v3.186c0 .756-.614 1.37-1.37 1.37H35.434c-.755 0-1.37-.614-1.37-1.37V17.01c0-.755.615-1.37 1.37-1.37h11.894c.756 0 1.37.615 1.37 1.37v4.773c0 .462.375.837.836.837zm-3.23-8.654h-9.846V8.021a4.931 4.931 0 014.923-4.929 4.93 4.93 0 014.923 4.929v5.946zm-4.922 4.322a3.097 3.097 0 00-3.092 3.095c0 1.417.956 2.613 2.256 2.98v2.04a.835.835 0 101.671 0v-2.04a3.099 3.099 0 002.257-2.98 3.097 3.097 0 00-3.092-3.095zm0 4.517a1.423 1.423 0 010-2.844 1.423 1.423 0 010 2.844z"/></svg><svg viewBox="0 0 25 28" id="play" xmlns="http://www.w3.org/2000/svg"><path d="M22.684 16.74L6.64 26.536c-.5.307-1.08.46-1.663.46-.48 0-.96-.104-1.399-.316C2.606 26.21 2 25.293 2 24.295V4.7c0-.999.607-1.917 1.58-2.387a3.242 3.242 0 013.061.144l16.044 9.798c.822.502 1.315 1.343 1.315 2.242s-.493 1.74-1.315 2.243z"/></svg><svg viewBox="0 0 24 24" id="search"><path fill-rule="evenodd" d="M21.45 18.798l-4.588-4.589a8.813 8.813 0 01-2.651 2.651l4.588 4.588a1.874 1.874 0 102.651-2.65zM17 9.498a7.502 7.502 0 00-7.5-7.5 7.501 7.501 0 000 15 7.5 7.5 0 007.5-7.5zm-7.5 5.625A5.63 5.63 0 013.875 9.5 5.632 5.632 0 019.5 3.873a5.632 5.632 0 015.625 5.626A5.63 5.63 0 019.5 15.123zM5.125 9.5h1.25A3.128 3.128 0 019.5 6.374v-1.25a4.38 4.38 0 00-4.375 4.375z"/></svg><svg viewBox="0 0 19 20" id="search-header" xmlns="http://www.w3.org/2000/svg"><path fill-rule="evenodd" d="M4.702 8.076c.356-.065.68.13.746.484.096.582.355 1.067.78 1.49.42.388.941.677 1.493.776.325.066.552.39.487.743a.643.643 0 01-.714.516 4.2 4.2 0 01-2.143-1.13 4.165 4.165 0 01-1.136-2.137c-.065-.354.128-.676.487-.742zm3.278-6.08c3.466 0 6.279 2.8 6.279 6.257 0 .93-.203 1.812-.568 2.604l2.336 2.036c1.703 1.747.746 3.266.294 3.717-.422.454-1.993 1.415-3.73-.292l-2.06-2.35c-.78.345-1.64.539-2.548.539-3.468 0-6.278-2.802-6.278-6.257 0-3.456 2.807-6.254 6.275-6.254zm5.546 13.517c.293.324 1.126.867 1.88.226.21-.176.634-1.068-.227-1.873l-2.162-1.88a6.267 6.267 0 01-1.363 1.34l1.872 2.187zM7.98 13.201c2.742 0 4.966-2.216 4.966-4.948S10.722 3.305 7.98 3.305 3.015 5.521 3.015 8.253s2.22 4.948 4.965 4.948z"/></svg><svg viewBox="0 0 53 52" id="support" xmlns="http://www.w3.org/2000/svg"><path d="M47.312 12.67a.938.938 0 10-1.592.992 22.618 22.618 0 013.424 11.988c0 12.506-10.175 22.68-22.68 22.68-4.952 0-9.656-1.566-13.604-4.53a.937.937 0 10-1.125 1.5c4.275 3.21 9.368 4.906 14.728 4.906 13.54 0 24.556-11.016 24.556-24.556 0-4.604-1.282-9.093-3.707-12.98zm-23.03 21.938h-7.55l4.743-4.743a12.698 12.698 0 003.744-9.039 5.851 5.851 0 00-5.844-5.844 5.851 5.851 0 00-5.844 5.844.938.938 0 101.875 0c0-2.189 1.78-3.97 3.969-3.97 2.188 0 3.969 1.781 3.969 3.97 0 2.914-1.135 5.653-3.195 7.714l-6.344 6.343a.938.938 0 00.663 1.6h9.813a.938.938 0 000-1.875zm15.04-6.437H36.72v-1.517a.938.938 0 00-1.875 0v1.517h-5.286l5.286-8.853v4.21a.937.937 0 101.875 0V15.92v-.008a.936.936 0 00-1.743-.473l-7.875 13.19a.937.937 0 00.805 1.418h6.938v5.5a.938.938 0 001.875 0v-5.5h2.601a.938.938 0 000-1.875zM44.65 5.538a.938.938 0 00-1.875.045l.042 1.749a24.405 24.405 0 00-6.345-4.112 24.367 24.367 0 00-10.01-2.126c-13.54 0-24.556 11.016-24.556 24.556 0 6.648 2.615 12.875 7.362 17.53a.931.931 0 001.326-.012.937.937 0 00-.014-1.325C6.197 37.541 3.782 31.79 3.782 25.65c0-12.506 10.175-22.68 22.681-22.68A22.76 22.76 0 0141.57 8.736l-1.843.043a.937.937 0 00.022 1.874h.023l4.06-.096a.938.938 0 00.915-.96l-.096-4.06z"/></svg><svg viewBox="0 0 512 512" id="user" xmlns="http://www.w3.org/2000/svg"><path d="M256 288.389c-153.837 0-238.56 72.776-238.56 204.925 0 10.321 8.365 18.686 18.686 18.686h439.747c10.321 0 18.686-8.365 18.686-18.686.001-132.142-84.722-204.925-238.559-204.925zM55.492 474.628c7.35-98.806 74.713-148.866 200.508-148.866s193.159 50.06 200.515 148.866H55.492zM256 0c-70.665 0-123.951 54.358-123.951 126.437 0 74.19 55.604 134.54 123.951 134.54s123.951-60.35 123.951-134.534C379.951 54.358 326.665 0 256 0zm0 223.611c-47.743 0-86.579-43.589-86.579-97.168 0-51.611 36.413-89.071 86.579-89.071 49.363 0 86.579 38.288 86.579 89.071 0 53.579-38.836 97.168-86.579 97.168z"/></svg></svg>